<svg t="1745025579947" class="icon" viewBox="0 0 1070 1024" version="1.1" xmlns="http://www.w3.org/2000/svg" p-id="4103" width="200" height="200"><path d="M65.097367 146.106552l82.942641 82.942642a37.67626 37.67626 0 0 0 53.274546-53.28761l-43.946928-43.933864a21.006736 21.006736 0 0 1 4.951215-20.902225 20.5495 20.5495 0 0 1 28.557664 0l37.885283 37.885283a479.640743 479.640743 0 0 1 262.035518-77.403552 491.202286 491.202286 0 0 1 57.115329 3.2921C734.190651 93.38069 897.815881 220.257195 951.652174 408.115942a456.452337 456.452337 0 0 1-1.097367 257.619922l95.575424 52.725863a42.801225 42.801225 0 1 1-41.80445 74.699326L906.634007 738.789141a38.133497 38.133497 0 0 0-31.353337 65.920392l46.690344 25.814247a20.170647 20.170647 0 1 1-19.77873 35.15493l-47.225964-26.362931a458.464176 458.464176 0 0 1-85.150439 77.442743H216.703817c-2.207798-1.64605-3.853848-2.743417-6.048581-4.389467-117.000204-84.040008-193.345581-220.779751-193.345581-375.16881A458.54256 458.54256 0 0 1 89.265564 290.018371L12.35844 212.575628a43.110839 43.110839 0 0 1 0-60.420494 42.496836 42.496836 0 0 1 52.738927-6.048582z" fill="#ECEDF3" p-id="4104"></path><path d="M27.185956 933.780772H889.650949a10.986732 10.986732 0 0 0 0-21.9604H27.185956a10.986732 10.986732 0 0 0 0 21.9604z m906.333538 0h57.677077a10.986732 10.986732 0 1 0 0-21.9604h-57.677077a10.986732 10.986732 0 1 0 0 21.9604z m-368.022862 43.946928h27.43417a10.986732 10.986732 0 1 0 0-21.973464h-27.43417a10.986732 10.986732 0 1 0 0 21.973464zM60.093897 1021.674627h310.411104a10.986732 10.986732 0 0 0 0-21.973463H60.093897a10.986732 10.986732 0 1 0 0 21.973463z m389.996325 0h475.199021a10.986732 10.986732 0 0 0 0-21.973463H450.142478a10.986732 10.986732 0 1 0 0 21.973463zM219.473362 977.7277h274.616044a10.986732 10.986732 0 1 0 0-21.973464H219.473362a10.986732 10.986732 0 1 0 0 21.973464z m439.430088 0h241.681976a10.986732 10.986732 0 1 0 0-21.973464h-241.681976a10.986732 10.986732 0 1 0 0 21.973464zM315.571341 49.433762a19.452133 19.452133 0 0 0 19.216983-19.230047 19.230047 19.230047 0 0 0-38.44703 0 19.465197 19.465197 0 0 0 19.230047 19.230047z m0 10.986732a30.491121 30.491121 0 0 1-30.216779-30.216779 30.216779 30.216779 0 0 1 60.420494 0 30.491121 30.491121 0 0 1-30.203715 30.216779z" fill="#ECEDF3" p-id="4105"></path><path d="M870.355583 659.151664a19.230047 19.230047 0 1 0-19.230047-19.230047 19.465197 19.465197 0 0 0 19.230047 19.230047z m0 10.973668a30.216779 30.216779 0 1 1 30.203715-30.203715 30.478057 30.478057 0 0 1-30.203715 30.203715z" fill="#FFFFFF" p-id="4106"></path><path d="M381.465605 230.695244a13.730149 13.730149 0 1 0-13.717085-13.730149 13.59951 13.59951 0 0 0 13.717085 13.730149z m0 10.986732a24.625434 24.625434 0 1 1 17.505614-7.211268A24.638498 24.638498 0 0 1 381.465605 241.681976zM145.257399 428.495611a19.230047 19.230047 0 1 0-19.190855-19.282302 19.465197 19.465197 0 0 0 19.216983 19.230047z m0 10.986732a30.216779 30.216779 0 1 1 30.216779-30.216779 30.478057 30.478057 0 0 1-30.216779 30.216779z" fill="#D7DAE4" p-id="4107"></path><path d="M880.244948 93.916309l-20.902225 48.898143-19.77873-45.592978-54.868341-23.619514 51.628496-21.973464L858.820167 0l24.168198 54.86834L927.536232 73.60196z" fill="#ECEDF3" p-id="4108"></path><path d="M715.457032 302.10247l21.973464-3.292101-15.937947-12.632782-3.840783-25.265564-14.814452 18.681363-23.619514 3.279037 19.77873 15.389263 2.743417 20.902225z m-14.84058-32.960196l-7.132884 3.853848 2.743417-3.305165z m-6.531945 77.455807l-6.035517-41.80445-36.265361-28.557664 44.495612-6.597265 28.022045-34.606246 7.132884 45.592978 32.960196 25.827311-42.849561 6.035518z" fill="#D7DAE4" p-id="4109"></path><path d="M185.938355 680.56338l-9.340682 28.022046-8.791998-26.924679-30.752399-10.451112 29.655032-9.902429 9.889365-29.655032 10.451112 30.765462 26.911615 8.791999z" fill="#FFFFFF" p-id="4110"></path><path d="M324.363339 346.598081l-5.499897 15.924883-4.938151-15.376199-17.583997-6.048582 16.983058-5.486834 5.486834-16.983058 6.048581 17.583997 15.3762 4.938151z" fill="#D8D8D8" p-id="4111"></path><path d="M652.253929 443.440702c0-6.963054-5.160237-12.606654-11.509287-12.606654h-28.897326c-6.401306 0-11.561543 5.643601-11.561543 12.606654v4.12819l51.994284 39.452949v-43.581139zM697.180649 542.543376l-44.92672-34.122882L600.246581 468.993672l-48.662993-36.944682a21.4901 21.4901 0 0 0-26.336803 0L379.675852 542.543376c-0.248214 0.195958-0.4703 0.418044-0.731578 0.614003a26.336803 26.336803 0 0 0-8.870381 24.037559h65.907328c14.37028 0 25.997142 12.750357 25.997142 28.387834v60.851602c0 12.293121-7.159012 22.718106-17.126761 26.676465h56.723413v-65.515411c0-15.833435 16.512758-28.740559 36.8663-28.74056s36.905491 12.867932 36.90549 28.74056v65.515411h64.013064c14.853644 0 26.898551-13.168402 26.898551-29.406818v-72.334762-1.00592l4.716065 3.566443a21.72525 21.72525 0 0 0 13.142274 4.493978 22.4307 22.4307 0 0 0 18.955705-10.843029 27.081445 27.081445 0 0 0 3.684017-9.236171c1.763625-9.575832-1.632986-19.857114-9.471321-25.801184z m-194.508267-40.249847v-0.078383a6.531945 6.531945 0 0 1 6.17922-6.740968h22.208614v28.44009h-28.387834z m6.17922 56.279241a6.531945 6.531945 0 0 1-6.17922-6.740968v-18.812002h28.361707v25.579098h-22.208614z m58.682997-6.740968a6.453562 6.453562 0 0 1-6.17922 6.740968h-21.986528v-25.55297h28.191876z m0-27.917534h-28.191876v-28.466217h22.012656a6.453562 6.453562 0 0 1 6.17922 6.740967z" fill="#D6D9E3" p-id="4112"></path><path d="M442.774444 753.904062v-2.090222a4.023678 4.023678 0 0 0-3.840784-4.180445h-4.912023l-38.590733-42.196367-0.195958 0.248214v-38.015922h42.313942c6.88467 0 12.449888-6.100837 12.449887-13.59951v-60.825474c0-7.485609-5.591345-13.586446-12.449887-13.586447H315.492958c-6.88467 0-12.449888 6.100837-12.449888 13.586447v60.851602c0 7.524801 5.591345 13.59951 12.449888 13.59951h48.009798v38.695244l-37.767708 41.26883h-8.726679a4.010614 4.010614 0 0 0-3.853848 4.193509v2.077159a4.049806 4.049806 0 0 0 3.853848 4.206573H438.946724a4.088998 4.088998 0 0 0 3.919167-4.232701z m-118.633191-103.936313h-9.641151a4.206573 4.206573 0 0 1 0-8.387018h9.60196a4.206573 4.206573 0 0 1 0 8.387018z m30.974485 0h-17.218208a4.206573 4.206573 0 0 1 0-8.387018h17.218208a4.206573 4.206573 0 0 1 0 8.387018z m13.756277-8.413146h17.205144a4.023678 4.023678 0 0 1 3.919167 4.180445 4.06287 4.06287 0 0 1-3.919167 4.206573h-17.205144a4.206573 4.206573 0 0 1 0-8.387018z m71.577056 0a4.023678 4.023678 0 0 1 3.840784 4.180445 4.06287 4.06287 0 0 1-3.840784 4.206573h-9.601959a4.206573 4.206573 0 0 1 0-8.387018z m-19.595836 4.180445a4.049806 4.049806 0 0 1-3.853847 4.206573h-17.152889a4.206573 4.206573 0 0 1 0-8.387018h17.205144a4.023678 4.023678 0 0 1 3.853848 4.180445z m-57.350479 87.384364v14.513983h-13.272913z m31.73219 14.487855v-15.676669l14.37028 15.676669zM671.039804 709.604409a4.29802 4.29802 0 0 0-5.891815 0l-10.986732 9.967749a9.275362 9.275362 0 0 0-2.939375 6.845478v7.838335H638.82425v-7.838335a9.249235 9.249235 0 0 0-2.952439-6.845478l-10.973669-9.967749a4.350276 4.350276 0 0 0-5.931006 0l-10.973668 9.967749a9.262298 9.262298 0 0 0-2.926311 6.845478v7.838335h-12.410696v-7.838335a9.249235 9.249235 0 0 0-2.95244-6.845478l-10.973668-9.967749a4.376403 4.376403 0 0 0-3.448867-1.071239 4.467851 4.467851 0 0 0-2.482139 1.071239l-10.973668 9.967749a9.288426 9.288426 0 0 0-2.95244 6.845478v7.838335h-12.371504v-7.838335a9.249235 9.249235 0 0 0-2.952439-6.845478l-10.921413-9.967749a4.311084 4.311084 0 0 0-5.891814 0l-10.947541 9.967749a9.223107 9.223107 0 0 0-2.978567 6.845478v7.838335H500.34701v-7.838335a9.249235 9.249235 0 0 0-2.95244-6.845478l-10.921412-9.967749a4.350276 4.350276 0 0 0-5.931007 0l-10.94754 9.967749a9.144723 9.144723 0 0 0-2.952439 6.845478v31.353338a4.023678 4.023678 0 0 0 3.853848 4.193509h26.049397a4.010614 4.010614 0 0 0 3.919168-4.193509v-9.941621h12.384568v9.941621a4.023678 4.023678 0 0 0 3.840784 4.193509h26.127781a4.023678 4.023678 0 0 0 3.853848-4.193509v-9.941621h12.371504v9.941621a4.036742 4.036742 0 0 0 3.853848 4.193509h26.127781a4.023678 4.023678 0 0 0 3.840784-4.193509v-9.941621h12.384568v9.941621a4.023678 4.023678 0 0 0 3.853848 4.193509h26.127781a4.023678 4.023678 0 0 0 3.853848-4.193509v-9.941621h12.384568v9.941621a4.010614 4.010614 0 0 0 3.840784 4.193509h25.840375a4.010614 4.010614 0 0 0 3.840784-4.193509v-31.353338a9.144723 9.144723 0 0 0-2.939375-6.845478z" fill="#D6D9E3" p-id="4113"></path></svg>