<svg t="1743906657604" class="icon" viewBox="0 0 1024 1024" version="1.1" xmlns="http://www.w3.org/2000/svg" p-id="3408" width="32" height="32"><path d="M283.057 873.587l208.477-109.543a44 44 0 0 1 40.932 0l208.477 109.543-39.81-231.98a44 44 0 0 1 12.663-38.957L882.41 438.382l-233.04-33.844a44 44 0 0 1-33.128-24.062L512 169.376l-104.24 211.1a44 44 0 0 1-33.13 24.062l-233.04 33.844L310.205 602.65a44 44 0 0 1 12.662 38.958l-39.81 231.98zM512 852.7L245.08 992.95c-32.28 16.962-70-10.451-63.832-46.392l50.972-297.025L16.296 439.174c-26.127-25.453-11.717-69.817 24.38-75.06l298.42-43.338L472.547 50.519c16.143-32.692 62.761-32.692 78.904 0l133.453 270.257 298.419 43.339c36.097 5.242 50.507 49.606 24.38 75.06L791.78 649.532l50.972 297.025c6.168 35.94-31.551 63.354-63.832 46.392L512 852.7z" fill="#cdcdcd" p-id="3409"></path></svg>