<svg t="1745026753790" class="icon" viewBox="0 0 1024 1024" version="1.1" xmlns="http://www.w3.org/2000/svg" p-id="6149" id="mx_n_1745026753792" width="86" height="86"><path d="M913.243218 456.957057c-26.971218 143.942621-150.56331 247.896276-295.512275 247.896276-69.661425 0-137.080644-23.987494-191.011311-69.67908l-13.482666 15.989701c57.302805 47.980874 129.212322 74.25177 203.369931 74.25177 153.935448 0 286.519908-111.951448 315.733333-265.033563l-19.097012-3.425104zM610.986667 854.510345l13.488551 26.270896 16.854805-22.845793 29.213425-4.566804-17.97885-23.99338 4.496184-28.560184-26.971219 7.997794-26.965333-13.712184v29.70777l-20.221058 19.420689 28.08938 10.281196z m-171.902529-86.822253l-21.356874-20.562391-7.862436 27.412598-25.841288 12.570483 23.599081 18.278988 5.614345 28.560184 22.469149-15.995586 29.213425 5.708506-8.986483-28.554299 12.358621-26.276782-29.213425-1.141701zM309.860046 114.240736l-24.717241 17.131402-29.219311-4.566805 7.868322 27.418483-14.606713 26.276782h30.337472l20.221057 20.562391 10.116414-27.424368 26.965333-13.706299-23.59908-17.131402-3.366253-28.560184z m505.620598 703.711632l22.475034 18.278988 7.862437-28.560184 24.717241-14.853885-24.717241-14.848-7.862437-28.560184-22.475034 19.42069-29.213426-2.283402 11.24046 26.270896-11.24046 27.424368 29.213426-2.295172z m-512.364874-479.808736l20.226943 3.430989c26.965333-143.942621 150.56331-247.896276 294.382344-247.896276 69.66731 0 137.080644 23.987494 191.017196 69.67908l13.476781-15.989701c-58.420966-47.980874-130.336368-74.257655-204.493977-74.257655-153.935448 0-286.519908 110.815632-314.609287 265.039448z m678.664828 269.606253l-8.992368 27.424368-24.717241 15.989701 23.593195 14.848 5.614345 28.560184 23.59908-18.278989 10.110529 1.141702v-51.405977h-7.862437l-21.350988-18.278989zM954.809379 0h-37.075862a527.82492 527.82492 0 0 1 93.254621 94.820046V57.120368A446.063816 446.063816 0 0 0 954.815264 0z m-135.956597 39.98308l21.350988 21.704092 8.986483-27.412597 25.841287-12.570483-23.59908-18.278989-1.118161-3.425103h-51.68846l4.496184 13.712184-13.482667 25.129195 29.213426 1.141701zM587.399356 0c0 2.283402-1.129931 6.856092-1.129931 6.856092L608.750345 0H587.387586z m53.930667 0h-22.475034l22.475034 12.564598V0zM404.244598 71.974253l22.475034-18.278989 30.337471 2.283403-11.240459-27.424368 11.240459-26.270897-30.337471 2.283403L422.223448 0h-21.345103l-3.372138 13.712184-25.841287 14.848 25.835402 14.848 6.744276 28.560184z" fill="#27af30" p-id="6150"></path><path d="M624.333977 892.822069c-273.39623 0-495.039264-222.925977-495.039264-497.899402 0-160.685609 76.505747-304.392828 195.766436-394.922667h-37.128827C176.551724 96.185379 106.790253 237.638621 106.790253 396.058483c0 287.426207 231.771218 520.533333 517.543724 520.533333 157.513563 0 298.148782-71.297471 393.780966-182.189609v-37.34069c-90.006069 118.81931-232.895264 195.760552-393.780966 195.760552z" fill="#27af30" p-id="6151"></path><path d="M40.724598 398.224184c0-153.6 59.956966-293.546667 156.112919-398.224184h-55.437241C53.171494 108.090851 0 246.895816 0 398.224184 0 742.970851 279.416644 1024 622.180046 1024c150.457379 0 288.467862-53.477517 395.934897-143.36v-55.749149c-105.207172 96.709149-244.347586 157.013333-397.064828 157.013333-319.01131 0-580.325517-262.826667-580.325517-583.68z" fill="#27af30" p-id="6152"></path><path d="M442.697563 561.658115c64.164782-25.923678 71.915402-31.820506 70.055724-54.107218-0.50023-6.938483-1.865563-12.605793-7.362207-30.190345-8.68046 1.889103-15.536552 2.589425-25.258666 1.906758 6.844322 17.508046 9.092414 26.500414 7.844781 31.385012-1.689011 7.014989-10.422437 11.993747-48.598804 27.465563l-2.153931 0.870989c-34.457011 13.924046-47.56892 18.532046-54.113104 18.867494-4.519724 0.217747-6.944368-1.800828-9.427862-7.938943l-20.085701-49.705195 100.210759-40.489196c8.709885-3.519264 13.741609-5.320092 20.915494-7.526988-2.507034-4.602115-4.243126-8.297931-7.550529-16.41931l-19.644322-48.610575a234.878529 234.878529 0 0 1-7.574069-21.592276c-7.20331 3.831172-14.653793 7.073839-26.930023 12.029058L317.381149 416.250115c-10.498943 4.237241-18.773333 7.126805-26.223816 9.216l9.439633 23.363678c6.014529-3.348598 14.571402-7.268046 25.264551-11.587678l100.204874-40.489195 17.525701 43.372873-98.227494 39.688828-4.56092-11.287541c-3.842943-9.504368-5.367172-14.418391-7.21508-21.274482l-24.752552 10.004597c3.230897 5.14354 5.025839 9.021793 9.75154 20.703633l35.604598 88.128735c4.961103 12.27623 10.051678 16.901885 18.655632 17.107862 11.469977 0.435494 28.071724-4.65508 69.855632-21.53931z m271.389426-184.749609l-7.356322-18.220138c-5.137655 2.724782-10.069333 4.961103-18.432 8.368552l-44.226207 17.872919-3.766437-9.310161 37.181793-15.018667c8.121379-3.272092 10.616644-4.196046 16.219218-5.632l-7.044413-17.425655c-5.102345 2.924874-8.315586 4.478529-16.931311 7.986023l-35.739954 14.441931-3.601655-8.909977 34.062713-13.759264c10.493057-4.237241 13.941701-5.402483 19.332414-6.885517l-7.044414-17.431541c-6.014529 3.354483-8.309701 4.507954-18.608552 8.66869l-34.062713 13.76515-3.601655-8.915862 43.372874-17.519817c8.121379-3.277977 12.358621-4.766897 17.549241-6.16754l-7.768276-19.208827c-6.208736 3.430989-10.887356 5.549609-19.797333 9.151264l-35.645793 14.400736c-6.332322-7.12092-9.357241-10.039908-15.801379-15.730759l-18.985196 14.583172c5.885057 4.296092 7.950713 6.002759 12.211494 10.269426l-37.629057 15.201103c1.677241-7.821241 2.142161-11.234575 2.883678-15.677793 0.194207-1.229977 0.117701-1.424184 0.506115-2.736552l-23.081195 1.029885c0.529655 5.314207 0.088276 13.329655-1.630161 21.621702-3.707586 18.773333-9.598529 33.82731-19.026391 48.692965 7.426943 4.14308 11.405241 7.138575 18.573241 14.612598 4.372598-7.986023 7.591724-15.972046 9.433747-23.393104 3.554575 9.816276 4.349057 11.887816 6.067495 16.154483l10.098758 24.999724c3.201471 7.921287 5.16708 13.34731 6.691311 18.261334 7.244506-3.160276 12.117333-5.355402 19.44423-8.321472l105.354298-42.56662c9.310161-3.760552 14.341885-5.561379 20.797794-7.250391z m-109.626851-33.568368l-41.583816 16.801839-3.601655-8.909977 41.589701-16.807724 3.59577 8.915862z m9.922207 24.55246l-41.583816 16.807724-3.601655-8.915862L610.78069 358.988506l3.601655 8.909977z m10.081103 24.952643l-41.583816 16.807725-3.766437-9.310161 41.589702-16.801839 3.766436 9.31016z m-11.770115 106.578391l-3.59577-8.909977 101.793839-41.130666 3.59577 8.915862 21.986575-8.886437c-2.801287-4.819862-4.825747-9.174805-7.827126-16.513471l-11.328736-28.036414c-3.442759-8.515678-5.320092-13.747494-6.567724-18.537931-4.025379 2.271632-8.021333 4.125425-15.30115 7.097379l-112.510528 45.462069c-8.121379 3.277977-12.558713 4.843402-17.549242 6.16754 2.871908 4.825747 5.231816 10.092874 8.274391 17.619862l10.475402 25.941334a213.221517 213.221517 0 0 1 6.773702 19.614896l21.786482-8.804046z m90.435678-69.249471l-101.793839 41.130667-6.402942-15.842575 101.793839-41.130667 6.402942 15.842575z m265.816276-75.375816c-2.948414-5.025839-5.426023-10.016368-9.186574-19.326529l-17.284414-42.772598a174.762667 174.762667 0 0 1-6.69131-19.414804l-23.963955 9.686804c2.795402 4.625655 5.07292 9.698575 7.874207 16.631173l13.282575 32.873931-48.916598 19.762023-26.565149-65.747862 51.094069-20.644782a167.735908 167.735908 0 0 1 14.106483-5.002299c-1.677241-3.013149-3.636966-7.291586-5.714391-12.441011l-15.924966-39.406345c-2.960184-7.326897-4.360828-11.369931-5.973333-17.631632l-23.763862 9.604414c2.51292 4.507954 4.472644 8.786391 7.115034 15.324689l13.041288 32.27954-42.378299 17.125518-17.525701-43.372874c-3.678161-9.110069-5.202391-14.024092-6.732506-20.085701l-24.752552 10.004598c2.871908 4.825747 5.267126 9.616184 9.110069 19.126436l17.519816 43.366989-39.212138 15.842575-12.958896-32.085334c-2.718897-6.732506-4.443218-11.564138-5.60846-16.160367l-23.763862 9.598528c2.789517 4.63154 5.149425 9.898667 8.027218 17.031357l15.842575 39.206252a143.006897 143.006897 0 0 1 4.531494 12.917702c4.590345-2.318713 8.66869-4.196046 14.018207-6.355862l47.527724-19.202943 26.56515 65.747862-46.539035 18.802759-12.964781-32.079449c-3.201471-7.921287-4.766897-12.358621-5.885058-17.43154l-23.969839 9.68092c2.677701 4.908138 5.555494 10.887356 8.674575 18.608551l11.758345 29.11338c4.001839 9.904552 5.402483 13.947586 8.333241 24.046345a265.115954 265.115954 0 0 1 24.081655-11.110989L941.609195 353.868506l4.160736 10.29885 23.169471-9.363126z" fill="#67c23a" p-id="6153"></path></svg>